<svg id="Layer_1" data-name="Layer 1" xmlns="http://www.w3.org/2000/svg" viewBox="0 0 289.64 329.3"><defs><style>.cls-1{fill:#a30c33;}</style></defs><title>wsr-logo</title><path class="cls-1" d="M240.09,162s62.73-10.59,47-96.76c0,0-13.07,50.4-33.8,54.15,0,0,33.08-21.95,6-87.72,0,0-2.49,49.12-18.55,72,0,0,25.37-46.38-18.47-101.84,0,0,13.54,114-41.49,138.61,0,0,16.92,27.84-7,33.05-5.11,1.11-7.51-.4-10.8-4.15a21.85,21.85,0,0,1-5.29-15.71,19.35,19.35,0,0,1,3.48-6.67c2.67-3.36,5.18-3.37,8.22-.41,2.21-1.43,2.37-3.54.32-5.24-2.31-1.91-4.65-3.78-7-5.59a10.84,10.84,0,0,0-7.73-2.34,30.88,30.88,0,0,0-5.57,1,22.93,22.93,0,0,1-3.64.8l-10.05-6.34,1.63,7.29L131,134.41l4.59,12.06a31.48,31.48,0,0,0-2.18,4.26v0l-.18.47c-.56,1.32-1.08,2.67-1.58,4-1.68,4.22-3.32,8.12-4.57,10.57l-.27.49c-2.4,4.42-6,6.48-11,5.4-23.91-5.21-7-33.05-7-33.05C53.78,114,67.32,0,67.32,0,23.48,55.46,48.85,101.84,48.85,101.84c-16.06-22.92-18.55-72-18.55-72-27.05,65.77,6,87.72,6,87.72-20.73-3.74-33.8-54.15-33.8-54.15-15.7,86.18,47,96.76,47,96.76C30.1,163.69,3.72,141.47,3.72,141.47c19.17,50.77,60,47.75,60,47.75-11.53,8.84-36.85.59-36.85.59,23.69,19.39,50.45,12,50.45,12-7.5,10.68-28.56,7.26-28.56,7.26,30.78,12.53,56.42,4.13,56.42,4.13-5.85,8.86-24.48,8.65-24.48,8.65,18.43,6.45,32.22,7.49,42.36,6.17,6.59,6,6.07,7.77,5.43,14.76L115.8,294.28,131,271.34l1.1,58,14-38.19,11.62,36.75,1-56.08,13.75,20.71-13.26-48.81v-.17c-1.81-8-.25-11.79,2.79-14.36,10.43,2.31,25.56,2.09,46.91-5.39,0,0-18.63.21-24.48-8.65,0,0,25.64,8.39,56.42-4.13,0,0-21.06,3.42-28.56-7.26,0,0,26.76,7.36,50.45-12,0,0-25.32,8.25-36.85-.59,0,0,40.85,3,60-47.75C285.91,143.35,259.54,165.57,240.09,162Zm-90.8-22.62-1.08-1.89h6.4Z"/></svg>